<svg width="103" height="106" viewBox="0 0 103 106" fill="none" xmlns="http://www.w3.org/2000/svg">
<path d="M27.9222 67.0644L19.515 38.7182H23.1303L27.1505 52.8913L30.1954 63.6122H30.3991L33.444 52.8913L37.4642 38.7182H40.9569L32.5509 67.0644H27.9222Z" fill="black"/>
<path d="M51.2718 67.0644L42.8658 38.7182H46.48L50.5002 52.8913L53.5463 63.6122H53.7487L56.7948 52.8913L60.815 38.7182H64.3077L55.9017 67.0644H51.2718Z" fill="black"/>
<path d="M64.4291 56.6269C64.4291 49.9262 68.3683 45.6214 74.0533 45.6214C79.6977 45.6214 83.3523 49.9262 83.3523 55.8552V57.3985H67.8408V58.3726C67.8408 62.0677 70.3177 64.7483 74.2569 64.7483C77.0589 64.7483 79.1702 63.3681 80.2669 61.0936L82.6629 62.7179C81.4042 65.5199 78.3985 67.5502 74.2569 67.5502C68.2468 67.5514 64.4291 63.2466 64.4291 56.6269ZM67.8408 54.6775V54.9621H79.8609V54.5156C79.8609 50.8205 77.5054 48.3019 74.0533 48.3019C70.4796 48.3019 67.8408 51.0229 67.8408 54.6775Z" fill="black"/>
<path d="M53.6796 103.402C46.5931 103.402 39.8495 101.967 33.7132 99.3712C24.5094 95.4785 16.6738 88.9718 11.1425 80.785C5.61113 72.5969 2.38282 62.7334 2.38282 52.1054C2.38282 45.2367 3.7737 38.6991 6.28989 32.751C10.0636 23.8294 16.3702 16.2344 24.3058 10.8733C32.2425 5.51229 41.8036 2.38282 52.1054 2.38163C58.7632 2.38163 65.0995 3.73083 70.8655 6.16843C79.5132 9.82543 86.8748 15.9391 92.0715 23.6318C97.2683 31.3256 100.301 40.5914 100.302 50.5775C100.302 57.0306 98.9949 63.1728 96.6324 68.7601C93.0873 77.1423 87.163 84.2765 79.7061 89.3136C72.2492 94.3508 63.2681 97.2909 53.5891 97.2909V99.6725C60.3649 99.6725 66.825 98.2983 72.6993 95.8143C81.5114 92.087 89.0052 85.8626 94.2984 78.0282C99.5915 70.1939 102.684 60.7412 102.684 50.5775C102.684 43.5982 101.268 36.9415 98.7091 30.8898C94.8664 21.811 88.455 14.0909 80.3837 8.63818C72.3135 3.18543 62.575 -0.00119048 52.1042 3.3363e-07C44.9128 3.3363e-07 38.0573 1.45756 31.8222 4.09522C22.4695 8.05111 14.5172 14.6566 8.89897 22.972C3.2807 31.2863 -0.00119049 41.3178 3.23949e-07 52.1054C3.23949e-07 59.5134 1.50162 66.5773 4.21906 73.0006C8.29404 82.6355 15.0996 90.8295 23.6663 96.6169C32.2318 102.404 42.5669 105.786 53.6796 105.785V103.402Z" fill="black"/>
</svg>
